<svg width="50" height="50" viewBox="0 0 50 50" fill="none" xmlns="http://www.w3.org/2000/svg">
<path d="M2.61678 49.9609C2.30428 49.9609 1.99178 49.8438 1.7574 49.5703C1.52303 49.3359 1.40584 49.0234 1.4449 48.6719L3.90584 10.8594C3.9449 10.2344 4.45271 9.76562 5.07771 9.76562H15.3902V9.60938C15.3902 7.03125 16.4058 4.64844 18.2027 2.8125C20.0387 1.05469 22.4215 0.0390625 24.9996 0.0390625C30.273 0.0390625 34.609 4.33594 34.609 9.64844C34.609 9.6875 34.5699 9.72656 34.5699 9.76562V9.80469H44.9215C45.5465 9.80469 46.0543 10.2734 46.0933 10.8984L48.5152 48.4375C48.5543 48.5547 48.5543 48.6328 48.5543 48.75C48.5152 49.4141 48.0074 49.9609 47.3433 49.9609H2.61678ZM3.86678 47.6172H46.0933L43.8277 12.1484H34.5699V14.9609H34.609C35.234 15.3906 35.5855 16.0156 35.5855 16.7188C35.5855 17.9297 34.609 18.9063 33.398 18.9063C32.1871 18.9063 31.2105 17.9297 31.2105 16.7188C31.2105 16.0156 31.5621 15.3906 32.1871 14.9609H32.2262V12.1484H17.734V14.9609H17.773C18.398 15.3906 18.7496 16.0156 18.7496 16.7188C18.7496 17.9297 17.773 18.9063 16.5621 18.9063C15.3512 18.9063 14.3746 17.9297 14.3746 16.7188C14.3746 16.0156 14.7262 15.3906 15.3512 14.9609H15.3902V12.1484H6.1324L3.86678 47.6172ZM24.9996 2.42188C21.0152 2.42188 17.734 5.66406 17.734 9.6875V9.84375H32.3043L32.2652 9.76562V9.6875C32.2652 5.66406 28.984 2.42188 24.9996 2.42188Z" fill="#1F78B4"/>
</svg>
