<svg width="15" height="15" viewBox="0 0 15 15" fill="none" xmlns="http://www.w3.org/2000/svg">
<path d="M13.1246 3.12512L1.87464 3.12512C1.76074 3.12547 1.64909 3.15689 1.55172 3.21598C1.45434 3.27507 1.37493 3.3596 1.32202 3.46046C1.26911 3.56133 1.24471 3.67472 1.25145 3.78842C1.25819 3.90212 1.29581 4.01183 1.36027 4.10574L6.98527 12.2307C7.21839 12.5676 7.77964 12.5676 8.01339 12.2307L13.6384 4.10574C13.7035 4.01203 13.7417 3.90226 13.7488 3.78837C13.7559 3.67448 13.7317 3.56082 13.6787 3.45974C13.6257 3.35866 13.5461 3.27402 13.4484 3.21503C13.3507 3.15603 13.2388 3.12494 13.1246 3.12512ZM7.49964 10.777L3.06714 4.37512L11.9321 4.37512L7.49964 10.777Z" fill="#F90000"/>
</svg>
