<svg width="50" height="50" viewBox="0 0 50 50" fill="none" xmlns="http://www.w3.org/2000/svg">
<path d="M22.9154 43.75H11.6654C10.4986 43.75 9.9152 43.75 9.46955 43.5229C9.07755 43.3231 8.75884 43.0046 8.55909 42.6125C8.33203 42.1669 8.33203 41.5835 8.33203 40.4167V36.8419C8.33203 35.5177 8.33203 34.8554 8.43199 34.3033C8.89634 31.7383 10.9037 29.731 13.4687 29.2667C13.6289 29.2377 13.7981 29.2171 13.9898 29.2025C14.4587 29.1667 14.6931 29.1487 15.0062 29.1721C15.3317 29.1965 15.5137 29.2285 15.8278 29.3171C16.13 29.4023 16.6743 29.649 17.7629 30.1421C18.7269 30.5787 19.7562 30.8967 20.832 31.0771M41.3999 31.6746C41.2579 31.6831 41.1147 31.6875 40.971 31.6875C38.8366 31.6875 36.8897 30.7342 35.4154 29.1667C33.941 30.7342 31.9941 31.6873 29.8597 31.6873C29.716 31.6873 29.5729 31.6829 29.4308 31.6744C29.2574 32.4694 29.1654 33.3031 29.1654 34.1623C29.1654 38.7752 31.8212 42.651 35.4154 43.75C39.0095 42.651 41.6654 38.7752 41.6654 34.1623C41.6654 33.3031 41.5733 32.4694 41.3999 31.6746ZM31.2487 14.5833C31.2487 19.1857 27.5177 22.9167 22.9154 22.9167C18.313 22.9167 14.582 19.1857 14.582 14.5833C14.582 9.98096 18.313 6.25 22.9154 6.25C27.5177 6.25 31.2487 9.98096 31.2487 14.5833Z" stroke="#1F78B4" stroke-width="3" stroke-linecap="round" stroke-linejoin="round"/>
</svg>
