<svg width="182" height="34" viewBox="0 0 182 34" fill="none" xmlns="http://www.w3.org/2000/svg">
<path d="M17 0L20.8167 11.7467L33.168 11.7467L23.1756 19.0066L26.9923 30.7533L17 23.4934L7.00765 30.7533L10.8244 19.0066L0.832039 11.7467L13.1833 11.7467L17 0Z" fill="#FFE814"/>
<path d="M54 0L57.8167 11.7467L70.168 11.7467L60.1756 19.0066L63.9923 30.7533L54 23.4934L44.0077 30.7533L47.8244 19.0066L37.832 11.7467L50.1833 11.7467L54 0Z" fill="#FFE814"/>
<path d="M91 0L94.8167 11.7467L107.168 11.7467L97.1756 19.0066L100.992 30.7533L91 23.4934L81.0077 30.7533L84.8244 19.0066L74.832 11.7467L87.1833 11.7467L91 0Z" fill="#FFE814"/>
<path d="M128 0L131.817 11.7467L144.168 11.7467L134.176 19.0066L137.992 30.7533L128 23.4934L118.008 30.7533L121.824 19.0066L111.832 11.7467L124.183 11.7467L128 0Z" fill="#FFE814"/>
<path d="M165 0L168.817 11.7467L181.168 11.7467L171.176 19.0066L174.992 30.7533L165 23.4934L155.008 30.7533L158.824 19.0066L148.832 11.7467L161.183 11.7467L165 0Z" fill="#D9D9D9"/>
</svg>
