<svg width="28" height="39" viewBox="0 0 28 39" fill="none" xmlns="http://www.w3.org/2000/svg">
<path fill-rule="evenodd" clip-rule="evenodd" d="M8.18203 25.0635C7.21341 23.6984 6.55643 21.9709 6.29259 20.0952C6.02657 18.2142 6.16317 16.2671 6.68571 14.4915C7.20379 12.726 8.08827 11.211 9.22811 10.137C11.5408 7.95695 14.5852 7.95695 16.8978 10.137C18.0378 11.211 18.9222 12.726 19.4402 14.4915C19.9628 16.2671 20.0995 18.2142 19.8333 20.0952C19.5696 21.9709 18.9126 23.6984 17.9439 25.0635C16.6612 26.8803 14.9011 27.905 13.0629 27.905C11.2249 27.905 9.46482 26.8803 8.18203 25.0635Z" stroke="#515062" stroke-width="2" stroke-linecap="round" stroke-linejoin="round"/>
<path d="M13.0719 11.9072C12.6105 11.9746 12.2762 12.5455 12.325 13.1822C12.374 13.819 12.7876 14.2804 13.2489 14.213L13.0719 11.9072ZM15.1454 15.755C15.3263 16.3447 15.8192 16.6203 16.2465 16.3707C16.6737 16.1211 16.8734 15.4407 16.6925 14.8511L15.1454 15.755ZM18.6404 24.0944C18.3121 23.6421 17.7802 23.6427 17.4525 24.096C17.1247 24.549 17.1253 25.2832 17.4535 25.7355L18.6404 24.0944ZM21.2481 30.9635C21.5765 31.4159 22.1082 31.4153 22.4361 30.9621C22.7638 30.5088 22.7633 29.7749 22.435 29.3224L21.2481 30.9635ZM13.2489 14.213C14.0581 14.0946 14.8282 14.7208 15.1454 15.755L16.6925 14.8511C16.0869 12.8766 14.6168 11.6812 13.0719 11.9072L13.2489 14.213ZM17.4535 25.7355L21.2481 30.9635L22.435 29.3224L18.6404 24.0944L17.4535 25.7355Z" fill="#515062"/>
</svg>
