<svg width="38" height="37" viewBox="0 0 38 37" fill="none" xmlns="http://www.w3.org/2000/svg">
<g id="Group 1000002793">
<path id="Vector" d="M19 23.5C21.7615 23.5 24 21.2615 24 18.5C24 15.7385 21.7615 13.5 19 13.5C16.2385 13.5 14 15.7385 14 18.5C14 21.2615 16.2385 23.5 19 23.5Z" stroke="#515062" stroke-width="3" stroke-linecap="round" stroke-linejoin="round"/>
<path id="Vector_2" d="M31.7027 15.8258L29.8732 11.4082L32.332 8.50016L28.9987 5.16683L26.1065 7.63841L21.595 5.78306L20.5575 1.8335H17.3004L16.2472 5.83538L11.8394 7.69343L8.9987 5.16683L5.66536 8.50016L8.08765 11.4816L6.2862 15.9107L2.33203 16.8335V20.1668L6.33388 21.2593L8.19161 25.6663L5.66536 28.5002L8.9987 31.8335L11.984 29.4007L16.327 31.1873L17.332 35.1668H20.6654L21.6729 31.1888L26.0905 29.3593C26.8269 29.8857 28.9987 31.8335 28.9987 31.8335L32.332 28.5002L29.8585 25.5825L31.6885 21.1635L35.6652 20.1288L35.6654 16.8335L31.7027 15.8258Z" stroke="#515062" stroke-width="3" stroke-linecap="round" stroke-linejoin="round"/>
</g>
</svg>
