<svg width="28" height="26" viewBox="0 0 28 26" fill="none" xmlns="http://www.w3.org/2000/svg">
<rect width="28" height="26" fill="#1E1E1E"/>
<g id="Section 1">
<path d="M-15892 -8603C-15892 -8604.11 -15891.1 -8605 -15890 -8605H10214C10215.1 -8605 10216 -8604.1 10216 -8603V16351C10216 16352.1 10215.1 16353 10214 16353H-15890C-15891.1 16353 -15892 16352.1 -15892 16351V-8603Z" fill="#444444"/>
<path d="M-15890 -8604H10214V-8606H-15890V-8604ZM10215 -8603V16351H10217V-8603H10215ZM10214 16352H-15890V16354H10214V16352ZM-15891 16351V-8603H-15893V16351H-15891ZM-15890 16352C-15890.6 16352 -15891 16351.6 -15891 16351H-15893C-15893 16352.7 -15891.7 16354 -15890 16354V16352ZM10215 16351C10215 16351.6 10214.6 16352 10214 16352V16354C10215.7 16354 10217 16352.7 10217 16351H10215ZM10214 -8604C10214.6 -8604 10215 -8603.55 10215 -8603H10217C10217 -8604.66 10215.7 -8606 10214 -8606V-8604ZM-15890 -8606C-15891.7 -8606 -15893 -8604.66 -15893 -8603H-15891C-15891 -8603.55 -15890.6 -8604 -15890 -8604V-8606Z" fill="white" fill-opacity="0.1"/>
<g id="Dashboard - Profile">
<rect width="1280" height="2062" transform="translate(-758 -1354)" fill="#F2F7F2"/>
<g id="Rectangle 40366">
<rect x="-458" y="-1067" width="948" height="1268" rx="30" fill="#E9EEE9"/>
<rect x="-457" y="-1066" width="946" height="1266" rx="29" stroke="#515062" stroke-opacity="0.1" stroke-width="2"/>
</g>
<g id="Start ratings" clip-path="url(#clip0_9_8128)">
<g id="Frame 807">
<path id="Star 7" d="M14 0L17.1432 9.67376H27.3148L19.0858 15.6525L22.229 25.3262L14 19.3475L5.77101 25.3262L8.9142 15.6525L0.685208 9.67376H10.8568L14 0Z" fill="#FF9900"/>
</g>
</g>
</g>
</g>
<defs>
<clipPath id="clip0_9_8128">
<rect width="185" height="157" fill="white"/>
</clipPath>
</defs>
</svg>
