<svg width="15" height="15" viewBox="0 0 15 15" fill="none" xmlns="http://www.w3.org/2000/svg">
<path d="M1.87536 11.8749H13.1254C13.2393 11.8745 13.3509 11.8431 13.4483 11.784C13.5457 11.7249 13.6251 11.6404 13.678 11.5395C13.7309 11.4387 13.7553 11.3253 13.7485 11.2116C13.7418 11.0979 13.7042 10.9882 13.6397 10.8943L8.01473 2.76926C7.78161 2.43238 7.22036 2.43238 6.98661 2.76926L1.36161 10.8943C1.2965 10.988 1.25832 11.0977 1.25121 11.2116C1.24411 11.3255 1.26835 11.4392 1.3213 11.5403C1.37426 11.6413 1.45391 11.726 1.55159 11.785C1.64927 11.844 1.76125 11.8751 1.87536 11.8749ZM7.50036 4.22301L11.9329 10.6249H3.06786L7.50036 4.22301Z" fill="#05F900"/>
</svg>
