<svg width="39" height="49" viewBox="0 0 39 49" fill="none" xmlns="http://www.w3.org/2000/svg">
<g id="Group 225">
<path id="Vector" d="M2.33594 24.2858V39.1429C2.33594 39.1429 2.33594 46.5715 19.6693 46.5715C37.0026 46.5715 37.0026 39.1429 37.0026 39.1429V24.2858" stroke="#515062" stroke-width="3.5"/>
<path id="Vector_2" d="M2.33594 9.42859V24.2857C2.33594 24.2857 2.33594 31.7143 19.6693 31.7143C37.0026 31.7143 37.0026 24.2857 37.0026 24.2857V9.42859" stroke="#515062" stroke-width="3.5"/>
<path id="Vector_3" d="M19.6693 2C37.0026 2 37.0026 9.42857 37.0026 9.42857C37.0026 9.42857 37.0026 16.8571 19.6693 16.8571C2.33594 16.8571 2.33594 9.42857 2.33594 9.42857C2.33594 9.42857 2.33594 2 19.6693 2Z" stroke="#515062" stroke-width="3.5"/>
</g>
</svg>
