<svg width="35" height="47" viewBox="0 0 35 47" fill="none" xmlns="http://www.w3.org/2000/svg">
<path id="Vector" d="M19.6602 45.9439C24.3359 40.0353 35 25.7146 35 17.6707C35 7.91501 27.1615 0 17.5 0C7.83855 0 0 7.91501 0 17.6707C0 25.7146 10.6641 40.0353 15.3399 45.9439C16.4609 47.352 18.5391 47.352 19.6602 45.9439ZM17.5 11.7805C21.9905 11.7805 24.7971 16.689 22.5518 20.6159C21.5098 22.4384 19.5841 23.5611 17.5 23.561C13.0095 23.5612 10.203 18.6528 12.4481 14.7258C13.49 12.9033 15.4159 11.7805 17.5 11.7805Z" fill="#515062"/>
</svg>
