<svg width="62" height="45" viewBox="0 0 62 45" fill="none" xmlns="http://www.w3.org/2000/svg">
<g id="Group 217">
<path id="Vector" d="M28.082 13.3102H59.1848" stroke="#515062" stroke-width="4" stroke-linecap="round" stroke-linejoin="round"/>
<path id="Vector_2" d="M2.63281 18.9652L10.5686 10.0374C12.7149 7.62283 15.7913 6.24133 19.0219 6.24133H19.598" stroke="#515062" stroke-width="4" stroke-linecap="round" stroke-linejoin="round"/>
<path id="Vector_3" d="M2.63281 43L18.1842 42.9992L29.4943 34.5174C29.4943 34.5174 31.7821 32.9694 35.1494 30.2756C42.2182 24.6208 35.1494 15.6669 28.0806 20.3781C22.324 24.2145 16.7705 27.4486 16.7705 27.4486" stroke="#515062" stroke-width="4" stroke-linecap="round" stroke-linejoin="round"/>
<path id="Vector_4" d="M19.5977 26.034V7.65506C19.5977 4.53185 22.1295 2 25.2527 2H53.528C56.6513 2 59.183 4.53185 59.183 7.65506V24.6202C59.183 27.7435 56.6513 30.2753 53.528 30.2753H35.1491" stroke="#515062" stroke-width="4"/>
</g>
</svg>
