<svg width="48" height="51" viewBox="0 0 48 51" fill="none" xmlns="http://www.w3.org/2000/svg">
<g id="Group 209">
<path id="Vector" d="M1 13.4254L23.215 23.2988L24.7187 19.9153L2.50371 10.042L1 13.4254ZM25.8181 48.7587V21.607H22.1156V48.7587H25.8181ZM24.7187 23.2988L46.9337 13.4254L45.43 10.042L23.215 19.9153L24.7187 23.2988Z" fill="#515062"/>
<path id="Vector_2" d="M1.75 37.9229V12.6961C1.75 12.1108 2.09468 11.5805 2.62952 11.3428L23.3634 2.12764C23.7465 1.95745 24.1834 1.95745 24.5665 2.12764L45.3005 11.3428C45.8354 11.5805 46.18 12.1108 46.18 12.6961V37.9229C46.18 38.5081 45.8354 39.0386 45.3005 39.2763L24.5665 48.4913C24.1834 48.6614 23.7465 48.6614 23.3634 48.4913L2.62952 39.2763C2.09468 39.0386 1.75 38.5081 1.75 37.9229Z" stroke="#515062" stroke-width="3.5" stroke-linecap="round" stroke-linejoin="round"/>
<path id="Vector_3" d="M12.8594 6.797L34.1949 16.2794C34.7298 16.5171 35.0744 17.0475 35.0744 17.6328V26.5436" stroke="#515062" stroke-width="3.5" stroke-linecap="round" stroke-linejoin="round"/>
</g>
</svg>
