<svg width="47" height="47" viewBox="0 0 47 47" fill="none" xmlns="http://www.w3.org/2000/svg">
<path id="Vector" fill-rule="evenodd" clip-rule="evenodd" d="M3.25385 0C1.45681 0 0 1.45681 0 3.25385V43.7462C0 45.5432 1.45686 47 3.25385 47H43.7462C45.5432 47 47 45.5432 47 43.7462V3.25385C47 1.45686 45.5432 0 43.7462 0H3.25385ZM25.3077 7.83333C25.3077 6.83498 24.4983 6.02564 23.5 6.02564C22.5017 6.02564 21.6923 6.83498 21.6923 7.83333V10.4924C20.4505 10.677 19.2346 11.1063 18.2035 11.8872C16.5829 13.1147 15.6667 15.0243 15.6667 17.4744C15.6667 18.6684 15.9445 19.7296 16.4918 20.6465C17.0328 21.5528 17.7789 22.2211 18.5752 22.7278C20.0519 23.6675 21.9345 24.1804 23.4896 24.6041L23.627 24.6415C25.3607 25.1141 26.7237 25.5029 27.689 26.1173C28.1354 26.4015 28.4251 26.6933 28.609 27.0016C28.7867 27.2993 28.9231 27.7069 28.9231 28.3205C28.9231 29.7888 28.3318 30.7117 27.4668 31.3177C26.529 31.9745 25.1414 32.3336 23.5648 32.277C21.1502 32.1902 18.8504 31.1596 17.7154 29.6462C17.1164 28.8474 15.9833 28.6857 15.1846 29.2846C14.3859 29.8836 14.2241 31.0166 14.8231 31.8154C16.4369 33.967 19.0589 35.25 21.6923 35.7072V39.1667C21.6923 40.165 22.5017 40.9744 23.5 40.9744C24.4983 40.9744 25.3077 40.165 25.3077 39.1667V35.814C26.8206 35.6325 28.3 35.148 29.5408 34.2789C31.3656 33.0012 32.5385 30.9761 32.5385 28.3205C32.5385 27.1265 32.2606 26.0655 31.7134 25.1486C31.1723 24.2421 30.4261 23.5738 29.63 23.0671C28.1532 22.1274 26.2706 21.6145 24.7155 21.1907L24.5781 21.1534C22.8444 20.6807 21.4814 20.2919 20.5161 19.6776C20.0697 19.3934 19.78 19.1015 19.5961 18.7933C19.4185 18.4957 19.2821 18.0881 19.2821 17.4744C19.2821 15.9957 19.7889 15.2218 20.3864 14.7692C21.0594 14.2594 22.1115 13.9638 23.4513 13.9999C25.7382 14.0614 28.1793 15.0691 29.4526 16.3423C30.1586 17.0483 31.303 17.0483 32.0089 16.3423C32.7149 15.6364 32.7149 14.4918 32.0089 13.7859C30.3642 12.1411 27.8353 10.9825 25.3077 10.559V7.83333Z" fill="#515062"/>
</svg>
